<svg id="Layer_1" data-name="Layer 1" xmlns="http://www.w3.org/2000/svg" viewBox="0 0 610 238"><defs><style>.cls-1{fill:#e9302e;}</style></defs><path class="cls-1" d="M53.56,57.52v92.09c0,4.24-.13,8.5,0,12.73v.18a4.5,4.5,0,0,0,9,0V70.43c0-4.24.12-8.5,0-12.73a1.08,1.08,0,0,1,0-.18,4.5,4.5,0,0,0-9,0Z"/><path class="cls-1" d="M433,97.52v40a4.5,4.5,0,0,0,9,0v-40a4.5,4.5,0,1,0-9,0Z"/><path class="cls-1" d="M158,57.52v109c0,5-.14,10.1,0,15.14v.21a4.5,4.5,0,0,0,9,0v-109c0-5,.14-10.11,0-15.15v-.21a4.5,4.5,0,0,0-9,0Z"/><path class="cls-1" d="M208.56,57.52v109c0,5-.14,10.1,0,15.14v.21a4.5,4.5,0,1,0,9,0v-109c0-5,.13-10.11,0-15.15a1.47,1.47,0,0,1,0-.21,4.5,4.5,0,1,0-9,0Z"/><path class="cls-1" d="M298.56,57.52v105.2c0,4.86-.14,9.74,0,14.59v.21a4.5,4.5,0,1,0,9,0V72.32c0-4.86.13-9.73,0-14.59a1.47,1.47,0,0,1,0-.21,4.5,4.5,0,1,0-9,0Z"/><path class="cls-1" d="M348,72.52v78.9c0,3.64-.11,7.31,0,11v.15a4.5,4.5,0,0,0,9,0V83.62c0-3.64.11-7.3,0-11v-.15a4.5,4.5,0,1,0-9,0Z"/><path class="cls-1" d="M224.71,67.05l6,9.72L245,100.11l17.34,28.24,15,24.42c2.43,3.95,4.77,8,7.28,11.86a1.4,1.4,0,0,1,.1.16,4.5,4.5,0,0,0,7.78-4.54l-6-9.72-14.33-23.34L254.85,99l-15-24.42c-2.43-3.94-4.77-8-7.28-11.86a1.4,1.4,0,0,1-.1-.16,4.5,4.5,0,0,0-7.78,4.54Z"/><path class="cls-1" d="M518.72,58.72l4,11.91,9.57,28.72L543.8,134l10,30c1.61,4.83,3.15,9.7,4.84,14.51,0,.06,0,.13.07.2a4.57,4.57,0,0,0,5.53,3.14c2.22-.72,3.94-3.14,3.14-5.54l-4-11.9-9.58-28.73-11.54-34.63-10-30c-1.61-4.83-3.15-9.7-4.84-14.51,0-.06,0-.13-.07-.2-.74-2.22-3.13-3.92-5.53-3.14-2.22.72-3.94,3.15-3.14,5.54Z"/><path class="cls-1" d="M123.06,173h-65a4.5,4.5,0,0,0,0,9h65a4.5,4.5,0,1,0,0-9Z"/><path class="cls-1" d="M533.06,128h-35a4.5,4.5,0,0,0,0,9h35a4.5,4.5,0,0,0,0-9Z"/><path class="cls-1" d="M388.06,53H352.51a4.5,4.5,0,0,0,0,9h35.55a4.5,4.5,0,0,0,0-9Z"/><path class="cls-1" d="M434,82.62,409.22,57.87l-3.53-3.53a4.5,4.5,0,0,0-6.36,6.36l24.75,24.76L427.61,89A4.5,4.5,0,1,0,434,82.62Z"/><path class="cls-1" d="M427.61,146.05l-24.75,24.76-3.53,3.53a4.5,4.5,0,0,0,6.36,6.36L430.45,156l3.53-3.53a4.5,4.5,0,0,0-6.37-6.37Z"/><path class="cls-1" d="M388.06,173H352.51a4.5,4.5,0,0,0,0,9h35.55a4.5,4.5,0,0,0,0-9Z"/><path class="cls-1" d="M503.17,56.32l-4,11.91L489.63,97l-11.55,34.64-10,30c-1.6,4.83-3.41,9.63-4.83,14.51,0,.07-.05.14-.07.2a4.54,4.54,0,0,0,3.14,5.54,4.6,4.6,0,0,0,5.54-3.14l4-11.91,9.57-28.72,11.55-34.64,10-30c1.61-4.83,3.41-9.63,4.83-14.51,0-.07.05-.14.07-.2a4.53,4.53,0,0,0-3.14-5.54,4.61,4.61,0,0,0-5.54,3.14Z"/></svg>